<mxfile host="app.diagrams.net" agent="Mozilla/5.0 (Windows NT 10.0; Win64; x64) AppleWebKit/537.36 (KHTML, like Gecko) Chrome/129.0.0.0 Safari/537.36" version="24.7.16">
  <diagram name="第 1 页" id="j2aq3opvmHzck9cFTJ19">
    <mxGraphModel dx="1266" dy="2021" grid="1" gridSize="10" guides="1" tooltips="1" connect="1" arrows="1" fold="1" page="1" pageScale="1" pageWidth="827" pageHeight="1169" math="0" shadow="0">
      <root>
        <mxCell id="0" />
        <mxCell id="1" parent="0" />
        <mxCell id="WmY6sEMwrullaZHh4lko-1" value="" style="rounded=0;whiteSpace=wrap;html=1;" parent="1" vertex="1">
          <mxGeometry x="130" y="-20" width="830" height="890" as="geometry" />
        </mxCell>
        <mxCell id="J37NUGhFnpIfU3b7wJw7-4" value="" style="rounded=0;whiteSpace=wrap;html=1;" parent="1" vertex="1">
          <mxGeometry x="150" y="10" width="785" height="840" as="geometry" />
        </mxCell>
        <mxCell id="J37NUGhFnpIfU3b7wJw7-2" value="Actor" style="shape=umlActor;verticalLabelPosition=bottom;verticalAlign=top;html=1;outlineConnect=0;fontColor=none;noLabel=1;" parent="1" vertex="1">
          <mxGeometry x="160" y="230" width="30" height="60" as="geometry" />
        </mxCell>
        <mxCell id="J37NUGhFnpIfU3b7wJw7-6" value="网关服务" style="rounded=0;whiteSpace=wrap;html=1;fillColor=#fff2cc;strokeColor=#d6b656;" parent="1" vertex="1">
          <mxGeometry x="150" y="50" width="260" height="30" as="geometry" />
        </mxCell>
        <mxCell id="J37NUGhFnpIfU3b7wJw7-10" value="&lt;span style=&quot;font-weight: normal;&quot;&gt;&lt;font style=&quot;font-size: 14px;&quot;&gt;项目流式管控平台 分布式事务业务流程&lt;/font&gt;&lt;/span&gt;" style="text;html=1;align=center;verticalAlign=middle;whiteSpace=wrap;rounded=0;fontStyle=1" parent="1" vertex="1">
          <mxGeometry x="415" y="16" width="255" height="30" as="geometry" />
        </mxCell>
        <mxCell id="J37NUGhFnpIfU3b7wJw7-18" value="项目服务" style="rounded=0;whiteSpace=wrap;html=1;fillColor=#d5e8d4;strokeColor=#82b366;" parent="1" vertex="1">
          <mxGeometry x="410" y="50" width="260" height="30" as="geometry" />
        </mxCell>
        <mxCell id="J37NUGhFnpIfU3b7wJw7-30" value="" style="edgeStyle=orthogonalEdgeStyle;rounded=0;orthogonalLoop=1;jettySize=auto;html=1;exitX=1;exitY=0.3333333333333333;exitDx=0;exitDy=0;exitPerimeter=0;entryX=0;entryY=0.5;entryDx=0;entryDy=0;" parent="1" source="J37NUGhFnpIfU3b7wJw7-2" target="h-GE1UADWnrUF33FJIgI-4" edge="1">
          <mxGeometry relative="1" as="geometry">
            <mxPoint x="545" y="190" as="sourcePoint" />
            <mxPoint x="545.0588235294117" y="240" as="targetPoint" />
          </mxGeometry>
        </mxCell>
        <mxCell id="J37NUGhFnpIfU3b7wJw7-32" value="" style="edgeStyle=orthogonalEdgeStyle;rounded=0;orthogonalLoop=1;jettySize=auto;html=1;exitX=0.5;exitY=1;exitDx=0;exitDy=0;entryX=0.5;entryY=0.5;entryDx=0;entryDy=0;entryPerimeter=0;" parent="1" source="h-GE1UADWnrUF33FJIgI-4" target="J37NUGhFnpIfU3b7wJw7-2" edge="1">
          <mxGeometry relative="1" as="geometry">
            <mxPoint x="545" y="300" as="sourcePoint" />
            <mxPoint x="545.0588235294117" y="350" as="targetPoint" />
            <Array as="points">
              <mxPoint x="350" y="350" />
              <mxPoint x="175" y="350" />
            </Array>
          </mxGeometry>
        </mxCell>
        <mxCell id="J37NUGhFnpIfU3b7wJw7-38" value="&lt;b&gt;分布式事务：用于确保多个服务之间的操作，要么全部成功，要么全部失败，保证数据一致性&lt;/b&gt;" style="text;html=1;align=center;verticalAlign=middle;whiteSpace=wrap;rounded=0;" parent="1" vertex="1">
          <mxGeometry x="240" y="800" width="541" height="30" as="geometry" />
        </mxCell>
        <mxCell id="h-GE1UADWnrUF33FJIgI-1" value="流程服务" style="rounded=0;whiteSpace=wrap;html=1;fillColor=#dae8fc;strokeColor=#6c8ebf;" vertex="1" parent="1">
          <mxGeometry x="670" y="50" width="260" height="30" as="geometry" />
        </mxCell>
        <mxCell id="h-GE1UADWnrUF33FJIgI-9" value="" style="edgeStyle=orthogonalEdgeStyle;rounded=0;orthogonalLoop=1;jettySize=auto;html=1;" edge="1" parent="1" source="h-GE1UADWnrUF33FJIgI-4" target="h-GE1UADWnrUF33FJIgI-8">
          <mxGeometry relative="1" as="geometry">
            <Array as="points">
              <mxPoint x="440" y="250" />
              <mxPoint x="440" y="140" />
            </Array>
          </mxGeometry>
        </mxCell>
        <mxCell id="h-GE1UADWnrUF33FJIgI-4" value="是否通过&lt;div&gt;鉴权&lt;/div&gt;" style="rhombus;whiteSpace=wrap;html=1;" vertex="1" parent="1">
          <mxGeometry x="310" y="210" width="80" height="80" as="geometry" />
        </mxCell>
        <mxCell id="h-GE1UADWnrUF33FJIgI-7" value="否" style="text;html=1;align=center;verticalAlign=middle;whiteSpace=wrap;rounded=0;" vertex="1" parent="1">
          <mxGeometry x="230" y="320" width="60" height="30" as="geometry" />
        </mxCell>
        <mxCell id="h-GE1UADWnrUF33FJIgI-12" value="" style="edgeStyle=orthogonalEdgeStyle;rounded=0;orthogonalLoop=1;jettySize=auto;html=1;" edge="1" parent="1" source="h-GE1UADWnrUF33FJIgI-8" target="h-GE1UADWnrUF33FJIgI-11">
          <mxGeometry relative="1" as="geometry" />
        </mxCell>
        <mxCell id="h-GE1UADWnrUF33FJIgI-8" value="添加任务" style="whiteSpace=wrap;html=1;" vertex="1" parent="1">
          <mxGeometry x="480" y="110" width="120" height="60" as="geometry" />
        </mxCell>
        <mxCell id="h-GE1UADWnrUF33FJIgI-10" value="是" style="text;html=1;align=center;verticalAlign=middle;whiteSpace=wrap;rounded=0;" vertex="1" parent="1">
          <mxGeometry x="383" y="210" width="60" height="30" as="geometry" />
        </mxCell>
        <mxCell id="h-GE1UADWnrUF33FJIgI-14" value="" style="edgeStyle=orthogonalEdgeStyle;rounded=0;orthogonalLoop=1;jettySize=auto;html=1;" edge="1" parent="1" source="h-GE1UADWnrUF33FJIgI-11" target="h-GE1UADWnrUF33FJIgI-13">
          <mxGeometry relative="1" as="geometry" />
        </mxCell>
        <mxCell id="h-GE1UADWnrUF33FJIgI-11" value="添加任务成员" style="whiteSpace=wrap;html=1;" vertex="1" parent="1">
          <mxGeometry x="480" y="205" width="120" height="60" as="geometry" />
        </mxCell>
        <mxCell id="h-GE1UADWnrUF33FJIgI-16" value="" style="edgeStyle=orthogonalEdgeStyle;rounded=0;orthogonalLoop=1;jettySize=auto;html=1;entryX=0.5;entryY=0;entryDx=0;entryDy=0;" edge="1" parent="1" source="h-GE1UADWnrUF33FJIgI-13" target="h-GE1UADWnrUF33FJIgI-17">
          <mxGeometry relative="1" as="geometry">
            <mxPoint x="540" y="410" as="targetPoint" />
          </mxGeometry>
        </mxCell>
        <mxCell id="h-GE1UADWnrUF33FJIgI-13" value="更新日志" style="whiteSpace=wrap;html=1;" vertex="1" parent="1">
          <mxGeometry x="480" y="305" width="120" height="60" as="geometry" />
        </mxCell>
        <mxCell id="h-GE1UADWnrUF33FJIgI-19" value="" style="edgeStyle=orthogonalEdgeStyle;rounded=0;orthogonalLoop=1;jettySize=auto;html=1;" edge="1" parent="1" source="h-GE1UADWnrUF33FJIgI-17" target="J37NUGhFnpIfU3b7wJw7-2">
          <mxGeometry relative="1" as="geometry">
            <mxPoint x="400" y="450" as="targetPoint" />
          </mxGeometry>
        </mxCell>
        <mxCell id="h-GE1UADWnrUF33FJIgI-27" value="" style="edgeStyle=orthogonalEdgeStyle;rounded=0;orthogonalLoop=1;jettySize=auto;html=1;" edge="1" parent="1" source="h-GE1UADWnrUF33FJIgI-17" target="h-GE1UADWnrUF33FJIgI-26">
          <mxGeometry relative="1" as="geometry" />
        </mxCell>
        <mxCell id="h-GE1UADWnrUF33FJIgI-29" value="" style="edgeStyle=orthogonalEdgeStyle;rounded=0;orthogonalLoop=1;jettySize=auto;html=1;" edge="1" parent="1" source="h-GE1UADWnrUF33FJIgI-17" target="h-GE1UADWnrUF33FJIgI-28">
          <mxGeometry relative="1" as="geometry">
            <Array as="points">
              <mxPoint x="690" y="450" />
              <mxPoint x="690" y="140" />
            </Array>
          </mxGeometry>
        </mxCell>
        <mxCell id="h-GE1UADWnrUF33FJIgI-17" value="所属项目是否&lt;div&gt;已暂停&lt;/div&gt;" style="rhombus;whiteSpace=wrap;html=1;" vertex="1" parent="1">
          <mxGeometry x="480" y="410" width="120" height="80" as="geometry" />
        </mxCell>
        <mxCell id="h-GE1UADWnrUF33FJIgI-22" value="返回鉴权失败信息" style="text;html=1;align=center;verticalAlign=middle;whiteSpace=wrap;rounded=0;" vertex="1" parent="1">
          <mxGeometry x="205" y="350" width="110" height="30" as="geometry" />
        </mxCell>
        <mxCell id="h-GE1UADWnrUF33FJIgI-23" value="是" style="text;html=1;align=center;verticalAlign=middle;whiteSpace=wrap;rounded=0;" vertex="1" parent="1">
          <mxGeometry x="310" y="420" width="60" height="30" as="geometry" />
        </mxCell>
        <mxCell id="h-GE1UADWnrUF33FJIgI-24" value="返回项目已暂停信息" style="text;html=1;align=center;verticalAlign=middle;whiteSpace=wrap;rounded=0;" vertex="1" parent="1">
          <mxGeometry x="279" y="450" width="110" height="30" as="geometry" />
        </mxCell>
        <mxCell id="h-GE1UADWnrUF33FJIgI-26" value="入库&lt;div&gt;任务指派消息提醒&lt;/div&gt;" style="whiteSpace=wrap;html=1;" vertex="1" parent="1">
          <mxGeometry x="480" y="530" width="120" height="60" as="geometry" />
        </mxCell>
        <mxCell id="h-GE1UADWnrUF33FJIgI-32" value="" style="edgeStyle=orthogonalEdgeStyle;rounded=0;orthogonalLoop=1;jettySize=auto;html=1;" edge="1" parent="1" source="h-GE1UADWnrUF33FJIgI-28" target="h-GE1UADWnrUF33FJIgI-31">
          <mxGeometry relative="1" as="geometry" />
        </mxCell>
        <mxCell id="h-GE1UADWnrUF33FJIgI-28" value="添加审批设置" style="whiteSpace=wrap;html=1;" vertex="1" parent="1">
          <mxGeometry x="750" y="230" width="120" height="60" as="geometry" />
        </mxCell>
        <mxCell id="h-GE1UADWnrUF33FJIgI-30" value="是&lt;div&gt;跨服务调用&lt;/div&gt;" style="text;html=1;align=center;verticalAlign=middle;whiteSpace=wrap;rounded=0;" vertex="1" parent="1">
          <mxGeometry x="610" y="410" width="80" height="30" as="geometry" />
        </mxCell>
        <mxCell id="h-GE1UADWnrUF33FJIgI-34" value="" style="edgeStyle=orthogonalEdgeStyle;rounded=0;orthogonalLoop=1;jettySize=auto;html=1;" edge="1" parent="1" source="h-GE1UADWnrUF33FJIgI-31" target="h-GE1UADWnrUF33FJIgI-33">
          <mxGeometry relative="1" as="geometry" />
        </mxCell>
        <mxCell id="h-GE1UADWnrUF33FJIgI-31" value="内部认证" style="whiteSpace=wrap;html=1;" vertex="1" parent="1">
          <mxGeometry x="750" y="365" width="120" height="60" as="geometry" />
        </mxCell>
        <mxCell id="h-GE1UADWnrUF33FJIgI-33" value="入库&lt;div&gt;任务审批流程&lt;/div&gt;" style="whiteSpace=wrap;html=1;" vertex="1" parent="1">
          <mxGeometry x="750" y="528" width="120" height="60" as="geometry" />
        </mxCell>
        <mxCell id="h-GE1UADWnrUF33FJIgI-37" value="Seata-AT模式&lt;div&gt;事务管理器&lt;/div&gt;" style="rounded=0;whiteSpace=wrap;html=1;fillColor=#f8cecc;strokeColor=#b85450;" vertex="1" parent="1">
          <mxGeometry x="501" y="710" width="350" height="60" as="geometry" />
        </mxCell>
        <mxCell id="h-GE1UADWnrUF33FJIgI-38" value="" style="edgeStyle=orthogonalEdgeStyle;rounded=0;orthogonalLoop=1;jettySize=auto;html=1;exitX=0.5;exitY=1;exitDx=0;exitDy=0;" edge="1" parent="1" source="h-GE1UADWnrUF33FJIgI-26">
          <mxGeometry relative="1" as="geometry">
            <mxPoint x="610" y="600" as="sourcePoint" />
            <mxPoint x="540" y="710" as="targetPoint" />
          </mxGeometry>
        </mxCell>
        <mxCell id="h-GE1UADWnrUF33FJIgI-40" value="" style="edgeStyle=orthogonalEdgeStyle;rounded=0;orthogonalLoop=1;jettySize=auto;html=1;exitX=0.5;exitY=1;exitDx=0;exitDy=0;" edge="1" parent="1" source="h-GE1UADWnrUF33FJIgI-33">
          <mxGeometry relative="1" as="geometry">
            <mxPoint x="890" y="600" as="sourcePoint" />
            <mxPoint x="810" y="710" as="targetPoint" />
          </mxGeometry>
        </mxCell>
        <mxCell id="h-GE1UADWnrUF33FJIgI-41" value="&lt;div&gt;&lt;span style=&quot;background-color: initial;&quot;&gt;注册&lt;/span&gt;&lt;br&gt;&lt;/div&gt;&lt;div&gt;声明Seata数据库&lt;/div&gt;" style="text;html=1;align=center;verticalAlign=middle;whiteSpace=wrap;rounded=0;" vertex="1" parent="1">
          <mxGeometry x="800" y="650" width="130" height="30" as="geometry" />
        </mxCell>
        <mxCell id="h-GE1UADWnrUF33FJIgI-42" value="&lt;div&gt;&lt;span style=&quot;background-color: initial;&quot;&gt;注册&lt;/span&gt;&lt;br&gt;&lt;/div&gt;&lt;div&gt;声明Seata数据库&lt;/div&gt;" style="text;html=1;align=center;verticalAlign=middle;whiteSpace=wrap;rounded=0;" vertex="1" parent="1">
          <mxGeometry x="420" y="640" width="130" height="30" as="geometry" />
        </mxCell>
        <mxCell id="h-GE1UADWnrUF33FJIgI-43" value="" style="edgeStyle=orthogonalEdgeStyle;rounded=0;orthogonalLoop=1;jettySize=auto;html=1;exitX=0.641;exitY=-0.039;exitDx=0;exitDy=0;exitPerimeter=0;entryX=0;entryY=0.5;entryDx=0;entryDy=0;" edge="1" parent="1" source="h-GE1UADWnrUF33FJIgI-37" target="h-GE1UADWnrUF33FJIgI-33">
          <mxGeometry relative="1" as="geometry">
            <mxPoint x="700" y="540" as="sourcePoint" />
            <mxPoint x="700" y="660" as="targetPoint" />
          </mxGeometry>
        </mxCell>
        <mxCell id="h-GE1UADWnrUF33FJIgI-44" value="" style="edgeStyle=orthogonalEdgeStyle;rounded=0;orthogonalLoop=1;jettySize=auto;html=1;exitX=0.337;exitY=0.005;exitDx=0;exitDy=0;exitPerimeter=0;entryX=1;entryY=0.5;entryDx=0;entryDy=0;" edge="1" parent="1" source="h-GE1UADWnrUF33FJIgI-37" target="h-GE1UADWnrUF33FJIgI-26">
          <mxGeometry relative="1" as="geometry">
            <mxPoint x="713" y="721" as="sourcePoint" />
            <mxPoint x="760" y="568" as="targetPoint" />
            <Array as="points">
              <mxPoint x="620" y="710" />
              <mxPoint x="620" y="560" />
            </Array>
          </mxGeometry>
        </mxCell>
        <mxCell id="h-GE1UADWnrUF33FJIgI-45" value="提交/&lt;span style=&quot;background-color: initial;&quot;&gt;回滚数据&lt;/span&gt;" style="text;html=1;align=center;verticalAlign=middle;whiteSpace=wrap;rounded=0;" vertex="1" parent="1">
          <mxGeometry x="610" y="630" width="130" height="30" as="geometry" />
        </mxCell>
      </root>
    </mxGraphModel>
  </diagram>
</mxfile>
